<?xml version="1.0" standalone="no"?>
<!DOCTYPE svg PUBLIC "-//W3C//DTD SVG 20010904//EN"
 "http://www.w3.org/TR/2001/REC-SVG-20010904/DTD/svg10.dtd">
<svg version="1.0" xmlns="http://www.w3.org/2000/svg"
 width="700.000000pt" height="700.000000pt" viewBox="0 0 700.000000 700.000000"
 preserveAspectRatio="xMidYMid meet">
<metadata>
Created by potrace 1.14, written by Peter Selinger 2001-2017
</metadata>
<g transform="translate(0.000000,700.000000) scale(0.100000,-0.100000)"
fill="#000000" stroke="none">
<path d="M3278 6995 c-1 -1 -42 -5 -89 -9 -47 -4 -95 -8 -105 -10 -10 -2 -41
-7 -69 -10 -428 -56 -875 -210 -1270 -439 -103 -60 -265 -165 -315 -204 -8 -6
-51 -40 -95 -74 -353 -275 -673 -651 -897 -1054 -49 -87 -148 -289 -148 -301
0 -2 -9 -23 -20 -47 -57 -123 -157 -435 -186 -582 -2 -11 -10 -54 -19 -95 -29
-147 -36 -200 -52 -370 -15 -165 -8 -592 12 -711 2 -13 6 -46 9 -74 9 -78 22
-152 51 -285 21 -96 91 -339 114 -395 5 -11 25 -65 46 -120 63 -166 249 -531
312 -610 4 -6 34 -49 65 -95 170 -255 433 -535 708 -755 92 -74 370 -265 386
-265 4 0 15 -6 23 -14 35 -30 321 -169 474 -230 134 -53 330 -118 396 -131 9
-2 54 -12 101 -24 92 -22 172 -38 235 -47 22 -3 47 -7 55 -9 8 -2 47 -7 85
-11 39 -3 84 -9 100 -12 17 -3 840 -7 1830 -9 1643 -3 1804 -2 1843 12 51 20
99 66 123 120 18 38 19 114 18 1800 -1 968 -5 1796 -9 1840 -18 179 -21 211
-25 225 -2 8 -7 35 -10 60 -17 129 -80 384 -136 552 -348 1036 -1168 1857
-2204 2206 -168 57 -420 119 -555 137 -19 3 -46 7 -60 10 -13 2 -52 7 -86 11
-33 3 -74 8 -90 10 -32 5 -540 14 -546 9z m1900 -1924 c188 -58 293 -259 232
-441 -12 -35 -31 -78 -43 -95 -18 -26 -309 -406 -512 -670 -73 -95 -358 -467
-471 -615 -45 -58 -213 -278 -376 -490 -324 -423 -326 -426 -314 -437 4 -4
359 -8 789 -9 765 -1 783 -1 828 -21 190 -85 237 -315 93 -460 -90 -91 60 -83
-1760 -84 -1457 0 -1605 2 -1649 17 -92 31 -167 98 -202 181 -21 52 -24 69
-24 144 -1 93 25 142 177 334 69 88 138 175 153 194 14 19 55 71 91 116 73 92
58 73 295 375 98 124 190 241 205 260 72 89 127 159 145 184 11 15 28 37 39
49 10 12 35 45 56 72 21 28 118 152 217 276 98 124 232 294 298 378 109 139
141 190 118 192 -4 0 -350 1 -768 2 l-760 2 -45 24 c-107 55 -163 143 -163
256 0 100 39 175 121 234 73 51 10 49 1644 50 1454 1 1529 0 1586 -18z"/>
<path d="M4320 4522 c-5 -2 -26 -27 -47 -55 -20 -29 -40 -54 -43 -57 -3 -3
-42 -52 -86 -110 -44 -58 -192 -251 -329 -430 -137 -179 -282 -368 -322 -420
-40 -52 -76 -99 -80 -105 -13 -17 -267 -348 -288 -376 -65 -87 -141 -186 -150
-195 -5 -6 -19 -23 -30 -38 -11 -15 -82 -108 -158 -207 -81 -105 -137 -187
-135 -197 3 -15 18 -17 128 -17 l124 0 193 245 c106 135 203 258 216 274 12
16 93 120 180 230 231 293 415 527 442 561 13 17 69 89 126 160 123 156 243
308 284 361 17 21 73 93 125 159 152 191 154 195 142 207 -10 10 -266 18 -292
10z"/>
</g>
</svg>
