<svg width="256" height="256" viewBox="0 0 256 256" fill="none" xmlns="http://www.w3.org/2000/svg">
<path d="M23.5147 241.124C11.0802 241.124 1 231.044 1 218.61V218.61C1 213.558 2.69878 208.653 5.8232 204.684L123.696 54.9341C123.91 54.6631 124.026 54.3281 124.026 53.9831V53.9831C124.026 53.1339 123.337 52.4455 122.488 52.4455H24.2152C13.5988 52.4455 4.99242 43.8392 4.99242 33.2228V33.2228C4.99242 22.6063 13.5988 14 24.2152 14H155.108C168.403 14 179.18 24.7776 179.18 38.0724V38.0724C179.18 43.3662 177.435 48.5123 174.215 52.7143L61.2052 200.193C60.9984 200.463 60.8863 200.793 60.8863 201.133V201.133C60.8863 201.987 61.5785 202.679 62.4323 202.679H164.098C174.714 202.679 183.321 211.285 183.321 221.902V221.902C183.321 232.518 174.714 241.124 164.098 241.124H23.5147Z" fill="#2764FF"/>
<path d="M94.5147 241.124C82.0802 241.124 72 231.044 72 218.61V218.61C72 213.558 73.6988 208.653 76.8232 204.684L194.696 54.9341C194.91 54.6631 195.026 54.3281 195.026 53.9831V53.9831C195.026 53.1339 194.337 52.4455 193.488 52.4455H95.2152C84.5988 52.4455 75.9924 43.8392 75.9924 33.2228V33.2228C75.9924 22.6063 84.5988 14 95.2152 14H226.108C239.403 14 250.18 24.7776 250.18 38.0724V38.0724C250.18 43.3662 248.435 48.5123 245.215 52.7143L132.205 200.193C131.998 200.463 131.886 200.793 131.886 201.133V201.133C131.886 201.987 132.578 202.679 133.432 202.679H235.098C245.714 202.679 254.321 211.285 254.321 221.902V221.902C254.321 232.518 245.714 241.124 235.098 241.124H94.5147Z" fill="#2764FF"/>
</svg>
