<svg width="476" height="476" viewBox="0 0 476 476" fill="none" xmlns="http://www.w3.org/2000/svg">
<path fill-rule="evenodd" clip-rule="evenodd" d="M238 476C106.556 476 0 369.444 0 238C0 106.556 106.556 0 238 0C369.444 0 476 106.556 476 238V461C476 469.284 469.284 476 461 476H238ZM124.823 320.684L242.696 170.934C242.91 170.663 243.026 170.328 243.026 169.983C243.026 169.134 242.337 168.446 241.488 168.446H214.215H143.215C132.599 168.446 123.992 159.839 123.992 149.223C123.992 138.606 132.599 130 143.215 130H214.215H274.108H345.108C358.403 130 369.18 140.778 369.18 154.072C369.18 159.366 367.435 164.512 364.215 168.714L251.205 316.193C250.998 316.463 250.886 316.793 250.886 317.133C250.886 317.987 251.578 318.679 252.432 318.679H283.098H354.098C364.714 318.679 373.321 327.285 373.321 337.902C373.321 348.518 364.714 357.124 354.098 357.124H283.098H213.515H142.515C130.08 357.124 120 347.044 120 334.61C120 329.558 121.699 324.653 124.823 320.684Z" fill="white"/>
<path d="M293.215 168.714L180.205 316.193C179.998 316.463 179.886 316.793 179.886 317.133C179.886 317.987 180.578 318.679 181.432 318.679H197.402L313.696 170.934C313.91 170.663 314.026 170.328 314.026 169.983C314.026 169.134 313.337 168.446 312.488 168.446H293.418C293.351 168.536 293.284 168.625 293.215 168.714Z" fill="white"/>
</svg>
