<svg width="476" height="476" viewBox="0 0 476 476" fill="none" xmlns="http://www.w3.org/2000/svg">
<g clip-path="url(#clip0_3_41)">
<path d="M238 476C106.556 476 0 369.444 0 238C0 106.556 106.556 0 238 0C369.444 0 476 106.556 476 238V461C476 469.284 469.284 476 461 476H238Z" fill="#2764FF"/>
<path d="M142.515 357.124C130.08 357.124 120 347.044 120 334.61V334.61C120 329.558 121.699 324.653 124.823 320.684L242.696 170.934C242.91 170.663 243.026 170.328 243.026 169.983V169.983C243.026 169.134 242.337 168.446 241.488 168.446H143.215C132.599 168.446 123.992 159.839 123.992 149.223V149.223C123.992 138.606 132.599 130 143.215 130H274.108C287.403 130 298.18 140.778 298.18 154.072V154.072C298.18 159.366 296.435 164.512 293.215 168.714L180.205 316.193C179.998 316.463 179.886 316.793 179.886 317.133V317.133C179.886 317.987 180.578 318.679 181.432 318.679H283.098C293.714 318.679 302.321 327.285 302.321 337.902V337.902C302.321 348.518 293.714 357.124 283.098 357.124H142.515Z" fill="white"/>
<path d="M142.515 357.124C130.08 357.124 120 347.044 120 334.61V334.61C120 329.558 121.699 324.653 124.823 320.684L242.696 170.934C242.91 170.663 243.026 170.328 243.026 169.983V169.983C243.026 169.134 242.337 168.446 241.488 168.446H143.215C132.599 168.446 123.992 159.839 123.992 149.223V149.223C123.992 138.606 132.599 130 143.215 130H274.108C287.403 130 298.18 140.778 298.18 154.072V154.072C298.18 159.366 296.435 164.512 293.215 168.714L180.205 316.193C179.998 316.463 179.886 316.793 179.886 317.133V317.133C179.886 317.987 180.578 318.679 181.432 318.679H283.098C293.714 318.679 302.321 327.285 302.321 337.902V337.902C302.321 348.518 293.714 357.124 283.098 357.124H142.515Z" fill="white"/>
<path d="M213.515 357.124C201.08 357.124 191 347.044 191 334.61V334.61C191 329.558 192.699 324.653 195.823 320.684L313.696 170.934C313.91 170.663 314.026 170.328 314.026 169.983V169.983C314.026 169.134 313.337 168.446 312.488 168.446H214.215C203.599 168.446 194.992 159.839 194.992 149.223V149.223C194.992 138.606 203.599 130 214.215 130H345.108C358.403 130 369.18 140.778 369.18 154.072V154.072C369.18 159.366 367.435 164.512 364.215 168.714L251.205 316.193C250.998 316.463 250.886 316.793 250.886 317.133V317.133C250.886 317.987 251.578 318.679 252.432 318.679H354.098C364.714 318.679 373.321 327.285 373.321 337.902V337.902C373.321 348.518 364.714 357.124 354.098 357.124H213.515Z" fill="white"/>
<path d="M213.515 357.124C201.08 357.124 191 347.044 191 334.61V334.61C191 329.558 192.699 324.653 195.823 320.684L313.696 170.934C313.91 170.663 314.026 170.328 314.026 169.983V169.983C314.026 169.134 313.337 168.446 312.488 168.446H214.215C203.599 168.446 194.992 159.839 194.992 149.223V149.223C194.992 138.606 203.599 130 214.215 130H345.108C358.403 130 369.18 140.778 369.18 154.072V154.072C369.18 159.366 367.435 164.512 364.215 168.714L251.205 316.193C250.998 316.463 250.886 316.793 250.886 317.133V317.133C250.886 317.987 251.578 318.679 252.432 318.679H354.098C364.714 318.679 373.321 327.285 373.321 337.902V337.902C373.321 348.518 364.714 357.124 354.098 357.124H213.515Z" fill="white"/>
</g>
<defs>
<clipPath id="clip0_3_41">
<rect width="476" height="476" fill="white"/>
</clipPath>
</defs>
</svg>